<?xml version="1.0" encoding="UTF-8"?>
<svg id="Layer_2" data-name="Layer 2" xmlns="http://www.w3.org/2000/svg" viewBox="0 0 127.55 174.46">
  <defs>
    <style>
      .cls-1 {
        fill: #448ac6;
      }

      .cls-1, .cls-2 {
        stroke-width: 0px;
      }

      .cls-2, .cls-3 {
        fill: #2e3778;
      }

      .cls-3 {
        stroke: #2e3778;
        stroke-miterlimit: 10;
        stroke-width: 7.15px;
      }
    </style>
  </defs>
  <g id="Layer_1-2" data-name="Layer 1">
    <g>
      <g>
        <path class="cls-3" d="m111.67,100.53l-8.39-8.44c2.85,2.78,5.78,5.62,8.39,8.44Z"/>
        <g>
          <path class="cls-1" d="m120.22,105.4c-1.46-2.19-3.39-4.57-5.9-7.28l-.07-.08c-2.51-2.7-5.29-5.41-7.98-8.04l-.54-.53c-1.28-1.26-2.55-2.5-3.77-3.73l-.03-.09-27.45-27.6-18.2-18.2c-.91-.87-2.15-1.38-3.4-1.38l-52.87-.03v97.59h52.84c1.31,0,2.58-.54,3.43-1.42l23.55-23.55-18.59-17.76-5.31,5.42c-3.56,3.65-7.25,7.42-10.96,11-.23.23-.44.43-.62.62-.07.07-.13.14-.19.2-.03,0-.06,0-.1,0-8.01.02-16,.01-24.01,0l.1-46.4,24.36.03,24.43,24.53.03.17,19.4,19.28.18.17c9.93,9.42,17.07,17.58,11.39,29.53-4.53,9.52-11.63,11.33-23.14,11.34-25.59.02-51.19.02-76.79,0v25.24c12.7,0,25.4.01,38.11.01s26.27,0,39.41-.02c8.31,0,14.22-.53,18.08-1.62,13.32-3.74,23.83-13.62,28.82-27.09,5.07-13.65,3.5-28.73-4.21-40.33Z"/>
          <path class="cls-2" d="m122.14,23.56C114.33,8.99,99.8.24,83.26.14,55.01-.02,27-.04,0,.07v25.44c25.86.01,51.84.01,77.95,0,6.68,0,9.84.57,11.3,1.05,4.92,1.63,8.94,5.58,11.03,10.84,2.13,5.38,1.91,11.36-.59,15.98-1.1,2.03-2.95,4.41-5.64,7.27l-2.32,2.47,17.6,18.41,2.58-2.64c3.78-3.87,6.4-6.97,8.23-9.77,9.11-13.88,9.85-30.91,2-45.56Z"/>
        </g>
      </g>
      <g>
        <rect class="cls-2" x="29.5" y="80.72" width="7.31" height="7.31"/>
        <rect class="cls-2" x="39.04" y="80.72" width="7.31" height="7.31"/>
        <rect class="cls-2" x="29.5" y="90.2" width="7.31" height="7.31"/>
        <rect class="cls-2" x="39.04" y="90.2" width="7.31" height="7.31"/>
      </g>
    </g>
  </g>
</svg>