<svg width="3001" height="1098" viewBox="0 0 3001 1098" fill="none" xmlns="http://www.w3.org/2000/svg">
<path d="M900.714 618.518V413.77L916.738 399.527V369.26H939.883V383.503L971.93 351.456L1039.59 413.77V502.791H1073.41V226.827H1116.14V169.853H1219.41V226.827H1260.36V296.263H1315.55V460.061H1356.5V61.248H1413.47V0.713867H1438.4V61.248H1495.37V280.239H1547L1548.79 207.242H1598.64V146.708H1691.22L1689.44 422.672H1717.92V349.675L1778.46 296.263L1840.77 349.675V422.672H1894.19V479.646L1986.77 440.476L2047.3 468.963V440.476L2066.89 442.257V476.085L2100.71 490.328V618.518H900.714ZM2009.91 525.936H2038.4V550.862H2009.91V525.936ZM1928.01 525.936H1956.5V550.862H1928.01V525.936ZM1744.63 385.284H1773.12V411.99H1744.63V385.284ZM1573.71 305.165H1602.2V331.871H1573.71V305.165ZM1507.84 347.895H1534.54V374.601H1507.84V347.895ZM1399.23 120.002H1427.72V146.708H1399.23V120.002ZM1399.23 182.316H1427.72V209.022H1399.23V182.316ZM1399.23 246.411H1427.72V273.117H1399.23V246.411ZM1399.23 308.726H1427.72V335.432H1399.23V308.726ZM1399.23 372.821H1427.72V399.527H1399.23V372.821ZM1399.23 435.135H1427.72V461.841H1399.23V435.135ZM1399.23 499.23H1427.72V525.936H1399.23V499.23ZM1198.04 465.402H1226.53V492.109H1198.04V465.402ZM1139.29 312.287H1167.78V337.212H1139.29V312.287ZM929.201 543.741H957.687V570.447H929.201V543.741ZM929.201 438.696H957.687V463.622H929.201V438.696Z" fill="url(#paint0_linear_405_7052)"/>
<path d="M119.829 845.439C99.8347 845.439 75.1608 852.246 75.1608 876.494C75.1608 898.616 107.492 904.146 139.398 911.804C185.768 922.864 240.22 939.455 240.22 1004.97C240.22 1067.08 185.342 1097.28 129.188 1097.28C82.8182 1097.28 35.1722 1081.12 0.713867 1050.06L36.4484 1003.27C61.1223 1025.81 93.8789 1041.55 127.912 1041.55C150.884 1041.55 175.132 1035.17 175.132 1007.52C175.132 979.019 133.868 974.764 92.6027 963.704C51.3378 952.643 10.0729 934.776 10.0729 879.898C10.0729 819.915 64.1001 789.285 118.553 789.285C158.541 789.285 197.679 803.749 229.585 827.572L198.105 876.494C175.558 859.053 148.757 845.439 119.829 845.439ZM407.832 850.119V1092.18H343.17V850.119H258.513V794.39H492.489V850.119H407.832ZM615.433 794.39H679.245L794.106 1092.18H725.615L705.195 1035.6H589.058L569.063 1092.18H500.572L615.433 794.39ZM647.339 873.091L609.052 979.869H685.201L647.339 873.091ZM892.801 794.39V936.052L1008.94 794.39H1087.21L974.48 929.245L1090.19 1092.18H1011.92L933.641 978.168L892.801 1027.09V1092.18H828.139V794.39H892.801ZM1325.44 1036.45V1092.18H1119.55V794.39H1321.62V850.119H1184.21V914.781H1310.98V970.51H1184.21V1036.45H1325.44ZM1692.57 1036.45V1092.18H1486.68V794.39H1688.75V850.119H1551.34V914.781H1678.11V970.51H1551.34V1036.45H1692.57ZM1839.77 845.439C1819.77 845.439 1795.1 852.246 1795.1 876.494C1795.1 898.616 1827.43 904.146 1859.34 911.804C1905.71 922.864 1960.16 939.455 1960.16 1004.97C1960.16 1067.08 1905.28 1097.28 1849.13 1097.28C1802.76 1097.28 1755.11 1081.12 1720.65 1050.06L1756.39 1003.27C1781.06 1025.81 1813.82 1041.55 1847.85 1041.55C1870.82 1041.55 1895.07 1035.17 1895.07 1007.52C1895.07 979.019 1853.81 974.764 1812.54 963.704C1771.28 952.643 1730.01 934.776 1730.01 879.898C1730.01 819.915 1784.04 789.285 1838.49 789.285C1878.48 789.285 1917.62 803.749 1949.52 827.572L1918.04 876.494C1895.5 859.053 1868.69 845.439 1839.77 845.439ZM2127.77 850.119V1092.18H2063.11V850.119H1978.45V794.39H2212.43V850.119H2127.77ZM2335.37 794.39H2399.18L2514.04 1092.18H2445.55L2425.13 1035.6H2309L2289 1092.18H2220.51L2335.37 794.39ZM2367.28 873.091L2328.99 979.869H2405.14L2367.28 873.091ZM2671.45 850.119V1092.18H2606.78V850.119H2522.13V794.39H2756.1V850.119H2671.45ZM3000.71 1036.45V1092.18H2794.81V794.39H2996.89V850.119H2859.48V914.781H2986.25V970.51H2859.48V1036.45H3000.71Z" fill="url(#paint1_linear_405_7052)"/>
<defs>
<linearGradient id="paint0_linear_405_7052" x1="900.714" y1="0.713867" x2="2100.71" y2="0.713867" gradientUnits="userSpaceOnUse">
<stop stop-color="#2D388A"/>
<stop offset="1" stop-color="#00AEEF"/>
</linearGradient>
<linearGradient id="paint1_linear_405_7052" x1="0.713867" y1="789.285" x2="3000.71" y2="789.285" gradientUnits="userSpaceOnUse">
<stop stop-color="#2D388A"/>
<stop offset="1" stop-color="#00AEEF"/>
</linearGradient>
</defs>
</svg>
