<?xml version="1.0" encoding="UTF-8"?>
<svg id="Layer_2" data-name="Layer 2" xmlns="http://www.w3.org/2000/svg" viewBox="0 0 364.18 192.98">
  <defs>
    <style>
      .cls-1 {
        letter-spacing: .36em;
      }

      .cls-2 {
        letter-spacing: .36em;
      }

      .cls-3 {
        letter-spacing: .29em;
      }

      .cls-4 {
        font-family: Nexa-Trial-ExtraLight, Nexa-Trial;
        font-size: 27.16px;
        font-weight: 200;
        stroke: #323c84;
        stroke-miterlimit: 10;
        stroke-width: 1.19px;
      }

      .cls-4, .cls-5 {
        fill: #323c84;
      }

      .cls-6 {
        letter-spacing: .36em;
      }

      .cls-7 {
        fill: #448ac6;
      }

      .cls-7, .cls-5 {
        stroke-width: 0px;
      }

      .cls-8 {
        letter-spacing: .35em;
      }

      .cls-9 {
        letter-spacing: .35em;
      }
    </style>
  </defs>
  <g id="Layer_1-2" data-name="Layer 1">
    <g>
      <text class="cls-4" transform="translate(.6 184.29)"><tspan class="cls-1" x="0" y="0">SUPER</tspan><tspan class="cls-9" x="141.33" y="0">C</tspan><tspan class="cls-6" x="170.29" y="0">AR</tspan><tspan class="cls-8" x="228.77" y="0">S</tspan><tspan class="cls-3" x="256.16" y="0">T</tspan><tspan class="cls-2" x="280.06" y="0">AKE</tspan></text>
      <path class="cls-7" d="m198.37,77.14c-9.45-9.37-25.03-14.21-37.31-19.79-10.36-4.7-22.96-12.86-21.09-25.87,1.01-7,4.18-12.01,9.45-15.08.27-.68.58-1.34.95-1.96-8.77,3.55-15.95,10.44-18.4,19.87-5.28,20.32,13.51,29.4,28.74,35.49,9.67,3.87,23.14,9.16,30.31,16.86,8.89,9.51,6.59,25.44-4.62,31.7-5.63,3.14-13.33,3.41-19.97,2.94-16.56-1.19-26.98-11.19-32.79-26.01-.02-.06-.07-.09-.13-.09-.08,0-.14.07-.14.14l.43,21.82c0,.21.11.34.31.4,18.08,5.1,44.94,9.92,60.44-2.59,11.03-8.89,14.49-27.25,3.81-37.82Z"/>
      <path class="cls-5" d="m199.11,54.87c-6.19-2.61-14.08-6.19-23.66-10.72-9.92-4.71-18.85-12.56-17.43-24.44,1-8.28,6.11-14.54,14.16-16.81,18.34-5.15,39.49,1.42,47.21,20.01.03.08.11.14.2.14.12,0,.22-.1.23-.22l-.2-17.88c0-.26-.17-.48-.43-.55C208.57,1.75,197.84.29,187.01.02c-17.99-.45-37.2,7.93-38.08,28.3-.65,15.15,12.81,22.89,25.44,28.27,6.44,2.74,12.84,5.55,19.22,8.42,12.25,5.53,22.72,13.62,20.04,27.98-1.21,6.52-4.58,10.79-9.08,13.43-.3.77-.67,1.51-1.1,2.22,9.84-3.93,17.32-12.24,19.05-24.12,2.21-15.07-11.36-24.55-23.39-29.64Z"/>
    </g>
  </g>
</svg>